<svg width="17" height="13" viewBox="0 0 17 13" fill="none" xmlns="http://www.w3.org/2000/svg">
<g clip-path="url(#clip0_38_12)">
<path d="M15.5 6.64599L15.854 6.99999L16.207 6.64599L15.854 6.29199L15.5 6.64599ZM0.5 6.14599C0.367392 6.14599 0.240215 6.19867 0.146447 6.29244C0.0526785 6.3862 0 6.51338 0 6.64599C0 6.7786 0.0526785 6.90578 0.146447 6.99954C0.240215 7.09331 0.367392 7.14599 0.5 7.14599V6.14599ZM9.854 13L15.854 6.99999L15.146 6.29199L9.146 12.292L9.854 13ZM15.854 6.29199L9.854 0.291992L9.146 0.999992L15.146 6.99999L15.854 6.29199ZM15.5 6.14599H0.5V7.14599H15.5V6.14599Z" fill="#A77A19"/>
</g>
<defs>
<clipPath id="clip0_38_12">
<rect width="17" height="13" fill="white"/>
</clipPath>
</defs>
</svg>
