<svg width="31" height="26" viewBox="0 0 31 26" fill="none" xmlns="http://www.w3.org/2000/svg">
<path d="M27.125 0.5H3.875C2.84762 0.501128 1.86264 0.920523 1.13618 1.66616C0.40971 2.4118 0.001099 3.42278 0 4.47727V21.5227C0.001099 22.5772 0.40971 23.5882 1.13618 24.3338C1.86264 25.0795 2.84762 25.4989 3.875 25.5H27.125C28.1524 25.4989 29.1374 25.0795 29.8638 24.3338C30.5903 23.5882 30.9989 22.5772 31 21.5227V4.47727C30.9989 3.42278 30.5903 2.4118 29.8638 1.66616C29.1374 0.920523 28.1524 0.501128 27.125 0.5ZM26.1438 7.07884L16.1795 15.0334C15.9852 15.1884 15.7461 15.2726 15.5 15.2726C15.2539 15.2726 15.0148 15.1884 14.8205 15.0334L4.85621 7.07884C4.73913 6.98809 4.6408 6.87437 4.56692 6.74429C4.49304 6.6142 4.44508 6.47034 4.42584 6.32107C4.40659 6.17179 4.41645 6.02008 4.45482 5.87475C4.4932 5.72942 4.55933 5.59336 4.64938 5.47449C4.73942 5.35562 4.85159 5.2563 4.97936 5.18231C5.10713 5.10831 5.24795 5.06112 5.39364 5.04347C5.53933 5.02582 5.68699 5.03807 5.82803 5.0795C5.96907 5.12093 6.10069 5.19071 6.21522 5.2848L15.5 12.6967L24.7848 5.2848C25.0169 5.10484 25.3088 5.02592 25.5972 5.06509C25.8856 5.10426 26.1474 5.25838 26.326 5.49412C26.5046 5.72986 26.5856 6.02828 26.5515 6.32483C26.5174 6.62138 26.3709 6.89224 26.1438 7.07884Z" fill="#A77A19"/>
</svg>
