<?xml version="1.0" encoding="utf-8"?>
<!-- Generator: Adobe Illustrator 27.3.1, SVG Export Plug-In . SVG Version: 6.00 Build 0)  -->
<svg version="1.1" id="Layer_1" xmlns="http://www.w3.org/2000/svg" xmlns:xlink="http://www.w3.org/1999/xlink" x="0px" y="0px"
	 viewBox="0 0 18 17" style="enable-background:new 0 0 18 17;" xml:space="preserve">
<g>
	<path d="M3.7,1C4,1,4.4,1.2,4.6,1.5l1.3,1.7c0.3,0.4,0.3,1-0.1,1.3L5.5,4.8C5.4,4.9,5,5.3,5,6.1c0,1.2,0.8,2.5,2.4,4.1
		c1.6,1.6,2.9,2.3,4.1,2.3c0.8,0,1.2-0.4,1.3-0.5l0.5-0.5c0.2-0.2,0.4-0.3,0.7-0.3c0.2,0,0.4,0,0.5,0.1l1.9,1
		c0.3,0.2,0.5,0.5,0.6,0.8c0,0.2,0,0.5-0.3,0.8l-1.4,1.4c-0.2,0.2-0.5,0.4-0.7,0.4c-0.2,0-0.4,0-0.7,0c-1.6,0-4.9-0.5-8.4-4
		C1.8,8.3,1.1,5.2,1,3.7C1,3.3,1.2,3,1.4,2.8L3,1.3C3.1,1.1,3.4,1,3.7,1 M3.7,0c-0.5,0-1,0.2-1.4,0.6L0.7,2.1C0.3,2.6,0,3.1,0,3.7
		c0.1,1.6,0.8,5,4.8,9C8.5,16.4,12,17,13.9,17c0.3,0,0.6,0,0.8,0c0.5,0,1-0.3,1.3-0.7l1.4-1.4c1-1,0.7-2.6-0.5-3.3l-1.9-1
		c-0.3-0.2-0.7-0.3-1-0.3c-0.5,0-1,0.2-1.4,0.6l-0.5,0.5c0,0-0.2,0.2-0.6,0.2c-0.6,0-1.7-0.4-3.4-2.1c-3-2.9-1.9-4-1.9-4l0.3-0.3
		c0.7-0.7,0.8-1.8,0.2-2.7L5.4,0.9C4.9,0.3,4.3,0,3.7,0L3.7,0z"/>
</g>
</svg>
