<svg width="324" height="274" viewBox="0 0 324 274" fill="none" xmlns="http://www.w3.org/2000/svg">
<path d="M149.538 161.909V236.636C149.538 247.015 145.904 255.837 138.635 263.102C131.365 270.367 122.538 274 112.154 274H37.3846C27 274 18.1731 270.367 10.9038 263.102C3.63462 255.837 0 247.015 0 236.636V99.6364C0 86.1439 2.62861 73.2678 7.88582 61.0078C13.143 48.7479 20.25 38.142 29.2067 29.1903C38.1635 20.2386 48.7752 13.1357 61.0421 7.88139C73.3089 2.62713 86.1923 0 99.6923 0H112.154C115.529 0 118.45 1.23248 120.916 3.69744C123.382 6.16241 124.615 9.08144 124.615 12.4545V37.3636C124.615 40.7367 123.382 43.6558 120.916 46.1207C118.45 48.5857 115.529 49.8182 112.154 49.8182H99.6923C85.9327 49.8182 74.1851 54.6832 64.4495 64.4134C54.7139 74.1435 49.8462 85.8845 49.8462 99.6364V105.864C49.8462 111.053 51.6635 115.464 55.2981 119.097C58.9327 122.729 63.3462 124.545 68.5385 124.545H112.154C122.538 124.545 131.365 128.178 138.635 135.443C145.904 142.708 149.538 151.53 149.538 161.909ZM324 161.909V236.636C324 247.015 320.365 255.837 313.096 263.102C305.827 270.367 297 274 286.615 274H211.846C201.462 274 192.635 270.367 185.365 263.102C178.096 255.837 174.462 247.015 174.462 236.636V99.6364C174.462 86.1439 177.09 73.2678 182.347 61.0078C187.605 48.7479 194.712 38.142 203.668 29.1903C212.625 20.2386 223.237 13.1357 235.504 7.88139C247.77 2.62713 260.654 0 274.154 0H286.615C289.99 0 292.911 1.23248 295.377 3.69744C297.844 6.16241 299.077 9.08144 299.077 12.4545V37.3636C299.077 40.7367 297.844 43.6558 295.377 46.1207C292.911 48.5857 289.99 49.8182 286.615 49.8182H274.154C260.394 49.8182 248.647 54.6832 238.911 64.4134C229.175 74.1435 224.308 85.8845 224.308 99.6364V105.864C224.308 111.053 226.125 115.464 229.76 119.097C233.394 122.729 237.808 124.545 243 124.545H286.615C297 124.545 305.827 128.178 313.096 135.443C320.365 142.708 324 151.53 324 161.909Z" fill="#A77A19"/>
</svg>
