<svg width="20" height="20" viewBox="0 0 20 20" fill="none" xmlns="http://www.w3.org/2000/svg">
<path d="M10.001 0C15.524 0 20.001 4.477 20.001 10C20.001 15.523 15.524 20 10.001 20C8.23376 20.003 6.49759 19.5353 4.97101 18.645L0.00500728 20L1.35701 15.032C0.465966 13.5049 -0.00208981 11.768 0.00100709 10C0.00100709 4.477 4.47801 0 10.001 0ZM6.59301 5.3L6.39301 5.308C6.2637 5.31691 6.13735 5.35087 6.02101 5.408C5.91258 5.46951 5.81357 5.5463 5.72701 5.636C5.60701 5.749 5.53901 5.847 5.46601 5.942C5.09613 6.4229 4.89698 7.01331 4.90001 7.62C4.90201 8.11 5.03001 8.587 5.23001 9.033C5.63901 9.935 6.31201 10.89 7.20001 11.775C7.41401 11.988 7.62401 12.202 7.85001 12.401C8.95344 13.3724 10.2683 14.073 11.69 14.447L12.258 14.534C12.443 14.544 12.628 14.53 12.814 14.521C13.1052 14.5056 13.3895 14.4268 13.647 14.29C13.7779 14.2223 13.9056 14.1489 14.03 14.07C14.03 14.07 14.0723 14.0413 14.155 13.98C14.29 13.88 14.373 13.809 14.485 13.692C14.569 13.6053 14.639 13.5047 14.695 13.39C14.773 13.227 14.851 12.916 14.883 12.657C14.907 12.459 14.9 12.351 14.897 12.284C14.893 12.177 14.804 12.066 14.707 12.019L14.125 11.758C14.125 11.758 13.255 11.379 12.723 11.137C12.6673 11.1128 12.6077 11.0989 12.547 11.096C12.4786 11.0888 12.4094 11.0965 12.3442 11.1184C12.279 11.1403 12.2192 11.176 12.169 11.223C12.164 11.221 12.097 11.278 11.374 12.154C11.3325 12.2098 11.2753 12.2519 11.2098 12.2751C11.1443 12.2982 11.0733 12.3013 11.006 12.284C10.9408 12.2666 10.877 12.2446 10.815 12.218C10.691 12.166 10.648 12.146 10.563 12.11C9.98888 11.8599 9.45745 11.5215 8.98801 11.107C8.86201 10.997 8.74501 10.877 8.62501 10.761C8.23162 10.3842 7.88876 9.95799 7.60501 9.493L7.54601 9.398C7.50427 9.3338 7.47005 9.26501 7.44401 9.193C7.40601 9.046 7.50501 8.928 7.50501 8.928C7.50501 8.928 7.74801 8.662 7.86101 8.518C7.97101 8.378 8.06401 8.242 8.12401 8.145C8.24201 7.955 8.27901 7.76 8.21701 7.609C7.93701 6.925 7.64767 6.24467 7.34901 5.568C7.29001 5.434 7.11501 5.338 6.95601 5.319C6.90201 5.31233 6.84801 5.307 6.79401 5.303C6.65974 5.2953 6.5251 5.29663 6.39101 5.307L6.59301 5.3Z" fill="#A77A19"/>
</svg>
