<svg width="22" height="16" viewBox="0 0 22 16" fill="none" xmlns="http://www.w3.org/2000/svg">
<path fill-rule="evenodd" clip-rule="evenodd" d="M11 0.149902C9.809 0.149902 8.42 0.177902 7.066 0.215902L7.011 0.217902C5.633 0.256902 4.521 0.287902 3.645 0.432902C2.732 0.583902 1.974 0.872902 1.368 1.4959C0.76 2.1209 0.495 2.8939 0.37 3.8189C0.25 4.7089 0.25 5.8369 0.25 7.2389V8.7629C0.25 10.1629 0.25 11.2909 0.37 12.1819C0.494 13.1069 0.76 13.8799 1.368 14.5049C1.974 15.1289 2.732 15.4169 3.645 15.5679C4.521 15.7129 5.633 15.7439 7.011 15.7829L7.066 15.7849C8.421 15.8229 9.809 15.8509 11 15.8509C12.191 15.8509 13.58 15.8229 14.934 15.7849L14.989 15.7829C16.367 15.7439 17.479 15.7129 18.355 15.5679C19.268 15.4169 20.026 15.1279 20.632 14.5049C21.24 13.8799 21.506 13.1069 21.63 12.1819C21.75 11.2919 21.75 10.1639 21.75 8.7619V7.2379C21.75 5.8369 21.75 4.7089 21.63 3.8189C21.506 2.8939 21.24 2.1209 20.632 1.4959C20.026 0.871902 19.268 0.583902 18.355 0.432902C17.479 0.287902 16.367 0.256902 14.988 0.217902L14.934 0.215902C13.623 0.176111 12.3116 0.154109 11 0.149902ZM9.872 10.6509C9.75796 10.716 9.6288 10.7501 9.49747 10.7497C9.36613 10.7492 9.23721 10.7143 9.12361 10.6484C9.01001 10.5825 8.91571 10.4879 8.85014 10.3741C8.78457 10.2603 8.75004 10.1312 8.75 9.9999V5.9999C8.75004 5.86856 8.78457 5.73954 8.85014 5.62574C8.91571 5.51193 9.01001 5.41734 9.12361 5.35143C9.23721 5.28552 9.36613 5.25059 9.49747 5.25015C9.6288 5.2497 9.75796 5.28376 9.872 5.3489L13.372 7.3489C13.4867 7.41453 13.582 7.5093 13.6484 7.62362C13.7147 7.73794 13.7496 7.86775 13.7496 7.9999C13.7496 8.13206 13.7147 8.26187 13.6484 8.37619C13.582 8.49051 13.4867 8.58528 13.372 8.6509L9.872 10.6509Z" fill="#A77A19"/>
</svg>
